# MagicaVoxel @ Ephtracy

# group
o 

# material
mtllib konfetka.mtl
usemtl palette

# normals
vn -1 0 0
vn 1 0 0
vn 0 0 1
vn 0 0 -1
vn 0 -1 0
vn 0 1 0

# texcoords
vt 0.0332031 0.5
vt 0.400391 0.5
vt 0.958984 0.5

# verts
v -0.7 1.7 0
v -0.7 1.7 -0.1
v -0.7 2.1 0
v -0.7 2.1 -0.1
v -0.6 1.5 0
v -0.6 1.5 -0.1
v -0.6 1.7 0
v -0.6 1.7 -0.1
v -0.6 2.1 0
v -0.6 2.1 -0.1
v -0.6 2.3 0
v -0.6 2.3 -0.1
v -0.5 2.3 0
v -0.5 2.3 -0.1
v -0.5 2.4 0
v -0.5 2.4 -0.1
v -0.4 1.4 0
v -0.4 1.4 -0.1
v -0.4 1.5 0
v -0.4 1.5 -0.1
v -0.3 2.4 0
v -0.3 2.4 -0.1
v -0.3 2.5 0
v -0.3 2.5 -0.1
v -0.1 0 0
v -0.1 0 -0.1
v -0.1 1.4 0
v -0.1 1.4 -0.1
v 0 0 0
v 0 0 -0.1
v 0 1.4 0
v 0 1.4 -0.1
v 0.3 1.4 0
v 0.3 1.4 -0.1
v 0.3 1.5 0
v 0.3 1.5 -0.1
v 0.3 2.4 0
v 0.3 2.4 -0.1
v 0.3 2.5 0
v 0.3 2.5 -0.1
v 0.4 1.5 0
v 0.4 1.5 -0.1
v 0.4 1.6 0
v 0.4 1.6 -0.1
v 0.4 2.3 0
v 0.4 2.3 -0.1
v 0.4 2.4 0
v 0.4 2.4 -0.1
v 0.5 1.6 0
v 0.5 1.6 -0.1
v 0.5 1.7 0
v 0.5 1.7 -0.1
v 0.5 2.1 0
v 0.5 2.1 -0.1
v 0.5 2.3 0
v 0.5 2.3 -0.1
v 0.6 1.7 0
v 0.6 1.7 -0.1
v 0.6 2.1 0
v 0.6 2.1 -0.1
v -0.7 1.7 0
v -0.7 2.1 0
v -0.6 1.5 0
v -0.6 1.7 0
v -0.6 1.8 0
v -0.6 2.1 0
v -0.6 2.3 0
v -0.5 1.7 0
v -0.5 1.8 0
v -0.5 2.1 0
v -0.5 2.2 0
v -0.5 2.3 0
v -0.5 2.4 0
v -0.4 1.4 0
v -0.4 1.5 0
v -0.4 1.6 0
v -0.4 1.7 0
v -0.4 1.8 0
v -0.4 2.1 0
v -0.4 2.2 0
v -0.4 2.3 0
v -0.3 1.5 0
v -0.3 1.6 0
v -0.3 1.7 0
v -0.3 1.9 0
v -0.3 2 0
v -0.3 2.2 0
v -0.3 2.3 0
v -0.3 2.4 0
v -0.3 2.5 0
v -0.2 1.8 0
v -0.2 1.9 0
v -0.2 2 0
v -0.2 2.1 0
v -0.1 0 0
v -0.1 1.4 0
v -0.1 1.7 0
v -0.1 1.8 0
v -0.1 1.9 0
v -0.1 2 0
v -0.1 2.1 0
v -0.1 2.2 0
v 0 0 0
v 0 1.4 0
v 0 1.9 0
v 0 2 0
v 0.1 1.7 0
v 0.1 1.8 0
v 0.1 1.9 0
v 0.1 2 0
v 0.2 1.5 0
v 0.2 1.6 0
v 0.2 1.7 0
v 0.2 1.8 0
v 0.2 1.9 0
v 0.2 2 0
v 0.2 2.1 0
v 0.2 2.2 0
v 0.3 1.4 0
v 0.3 1.5 0
v 0.3 1.6 0
v 0.3 1.7 0
v 0.3 2 0
v 0.3 2.1 0
v 0.3 2.2 0
v 0.3 2.3 0
v 0.3 2.4 0
v 0.3 2.5 0
v 0.4 1.5 0
v 0.4 1.6 0
v 0.4 1.7 0
v 0.4 2 0
v 0.4 2.2 0
v 0.4 2.3 0
v 0.4 2.4 0
v 0.5 1.6 0
v 0.5 1.7 0
v 0.5 2.1 0
v 0.5 2.3 0
v 0.6 1.7 0
v 0.6 2.1 0
v -0.7 1.7 -0.1
v -0.7 2.1 -0.1
v -0.6 1.5 -0.1
v -0.6 1.7 -0.1
v -0.6 1.8 -0.1
v -0.6 2.1 -0.1
v -0.6 2.3 -0.1
v -0.5 1.7 -0.1
v -0.5 1.8 -0.1
v -0.5 2.1 -0.1
v -0.5 2.2 -0.1
v -0.5 2.3 -0.1
v -0.5 2.4 -0.1
v -0.4 1.4 -0.1
v -0.4 1.5 -0.1
v -0.4 1.6 -0.1
v -0.4 1.7 -0.1
v -0.4 1.8 -0.1
v -0.4 2.1 -0.1
v -0.4 2.2 -0.1
v -0.4 2.3 -0.1
v -0.3 1.5 -0.1
v -0.3 1.6 -0.1
v -0.3 1.7 -0.1
v -0.3 1.9 -0.1
v -0.3 2 -0.1
v -0.3 2.2 -0.1
v -0.3 2.3 -0.1
v -0.3 2.4 -0.1
v -0.3 2.5 -0.1
v -0.2 1.8 -0.1
v -0.2 1.9 -0.1
v -0.2 2 -0.1
v -0.2 2.1 -0.1
v -0.1 0 -0.1
v -0.1 1.4 -0.1
v -0.1 1.7 -0.1
v -0.1 1.8 -0.1
v -0.1 1.9 -0.1
v -0.1 2 -0.1
v -0.1 2.1 -0.1
v -0.1 2.2 -0.1
v 0 0 -0.1
v 0 1.4 -0.1
v 0 1.9 -0.1
v 0 2 -0.1
v 0.1 1.7 -0.1
v 0.1 1.8 -0.1
v 0.1 1.9 -0.1
v 0.1 2 -0.1
v 0.2 1.5 -0.1
v 0.2 1.6 -0.1
v 0.2 1.7 -0.1
v 0.2 1.8 -0.1
v 0.2 1.9 -0.1
v 0.2 2 -0.1
v 0.2 2.1 -0.1
v 0.2 2.2 -0.1
v 0.3 1.4 -0.1
v 0.3 1.5 -0.1
v 0.3 1.6 -0.1
v 0.3 1.7 -0.1
v 0.3 2 -0.1
v 0.3 2.1 -0.1
v 0.3 2.2 -0.1
v 0.3 2.3 -0.1
v 0.3 2.4 -0.1
v 0.3 2.5 -0.1
v 0.4 1.5 -0.1
v 0.4 1.6 -0.1
v 0.4 1.7 -0.1
v 0.4 2 -0.1
v 0.4 2.2 -0.1
v 0.4 2.3 -0.1
v 0.4 2.4 -0.1
v 0.5 1.6 -0.1
v 0.5 1.7 -0.1
v 0.5 2.1 -0.1
v 0.5 2.3 -0.1
v 0.6 1.7 -0.1
v 0.6 2.1 -0.1
v -0.1 0 0
v 0 0 0
v -0.1 0 -0.1
v 0 0 -0.1
v -0.4 1.4 0
v -0.1 1.4 0
v 0 1.4 0
v 0.3 1.4 0
v -0.4 1.4 -0.1
v -0.1 1.4 -0.1
v 0 1.4 -0.1
v 0.3 1.4 -0.1
v -0.6 1.5 0
v -0.4 1.5 0
v 0.3 1.5 0
v 0.4 1.5 0
v -0.6 1.5 -0.1
v -0.4 1.5 -0.1
v 0.3 1.5 -0.1
v 0.4 1.5 -0.1
v 0.4 1.6 0
v 0.5 1.6 0
v 0.4 1.6 -0.1
v 0.5 1.6 -0.1
v -0.7 1.7 0
v -0.6 1.7 0
v 0.5 1.7 0
v 0.6 1.7 0
v -0.7 1.7 -0.1
v -0.6 1.7 -0.1
v 0.5 1.7 -0.1
v 0.6 1.7 -0.1
v -0.7 2.1 0
v -0.6 2.1 0
v 0.5 2.1 0
v 0.6 2.1 0
v -0.7 2.1 -0.1
v -0.6 2.1 -0.1
v 0.5 2.1 -0.1
v 0.6 2.1 -0.1
v -0.6 2.3 0
v -0.5 2.3 0
v 0.4 2.3 0
v 0.5 2.3 0
v -0.6 2.3 -0.1
v -0.5 2.3 -0.1
v 0.4 2.3 -0.1
v 0.5 2.3 -0.1
v -0.5 2.4 0
v -0.3 2.4 0
v 0.3 2.4 0
v 0.4 2.4 0
v -0.5 2.4 -0.1
v -0.3 2.4 -0.1
v 0.3 2.4 -0.1
v 0.4 2.4 -0.1
v -0.3 2.5 0
v 0.3 2.5 0
v -0.3 2.5 -0.1
v 0.3 2.5 -0.1

# faces
f 3/3/1 2/3/1 1/3/1
f 4/3/1 2/3/1 3/3/1
f 7/3/1 6/3/1 5/3/1
f 8/3/1 6/3/1 7/3/1
f 11/3/1 10/3/1 9/3/1
f 12/3/1 10/3/1 11/3/1
f 15/3/1 14/3/1 13/3/1
f 16/3/1 14/3/1 15/3/1
f 19/3/1 18/3/1 17/3/1
f 20/3/1 18/3/1 19/3/1
f 23/3/1 22/3/1 21/3/1
f 24/3/1 22/3/1 23/3/1
f 27/1/1 26/1/1 25/1/1
f 28/1/1 26/1/1 27/1/1
f 29/1/2 30/1/2 31/1/2
f 31/1/2 30/1/2 32/1/2
f 33/3/2 34/3/2 35/3/2
f 35/3/2 34/3/2 36/3/2
f 37/3/2 38/3/2 39/3/2
f 39/3/2 38/3/2 40/3/2
f 41/3/2 42/3/2 43/3/2
f 43/3/2 42/3/2 44/3/2
f 45/3/2 46/3/2 47/3/2
f 47/3/2 46/3/2 48/3/2
f 49/3/2 50/3/2 51/3/2
f 51/3/2 50/3/2 52/3/2
f 53/3/2 54/3/2 55/3/2
f 55/3/2 54/3/2 56/3/2
f 57/3/2 58/3/2 59/3/2
f 59/3/2 58/3/2 60/3/2
f 64/3/3 62/3/3 61/3/3
f 65/3/3 62/3/3 64/3/3
f 66/3/3 62/3/3 65/3/3
f 68/3/3 64/3/3 63/3/3
f 68/3/3 65/3/3 64/3/3
f 69/2/3 66/2/3 65/2/3
f 69/3/3 65/3/3 68/3/3
f 70/3/3 67/3/3 66/3/3
f 70/2/3 66/2/3 69/2/3
f 71/3/3 67/3/3 70/3/3
f 72/3/3 67/3/3 71/3/3
f 75/3/3 68/3/3 63/3/3
f 76/3/3 68/3/3 75/3/3
f 77/2/3 69/2/3 68/2/3
f 77/3/3 68/3/3 76/3/3
f 78/3/3 70/3/3 69/3/3
f 78/2/3 69/2/3 77/2/3
f 79/2/3 71/2/3 70/2/3
f 79/3/3 70/3/3 78/3/3
f 80/3/3 73/3/3 72/3/3
f 80/2/3 71/2/3 79/2/3
f 80/3/3 72/3/3 71/3/3
f 81/3/3 73/3/3 80/3/3
f 82/3/3 76/3/3 75/3/3
f 82/3/3 75/3/3 74/3/3
f 83/2/3 77/2/3 76/2/3
f 83/3/3 76/3/3 82/3/3
f 84/3/3 79/3/3 78/3/3
f 84/2/3 77/2/3 83/2/3
f 84/3/3 78/3/3 77/3/3
f 84/3/3 80/3/3 79/3/3
f 85/3/3 80/3/3 84/3/3
f 86/3/3 80/3/3 85/3/3
f 87/2/3 81/2/3 80/2/3
f 87/3/3 80/3/3 86/3/3
f 88/3/3 73/3/3 81/3/3
f 88/2/3 81/2/3 87/2/3
f 89/3/3 73/3/3 88/3/3
f 91/3/3 84/3/3 83/3/3
f 91/3/3 85/3/3 84/3/3
f 92/2/3 86/2/3 85/2/3
f 92/3/3 85/3/3 91/3/3
f 93/3/3 87/3/3 86/3/3
f 93/2/3 86/2/3 92/2/3
f 93/3/3 88/3/3 87/3/3
f 94/3/3 88/3/3 93/3/3
f 96/3/3 82/3/3 74/3/3
f 97/3/3 91/3/3 83/3/3
f 98/2/3 92/2/3 91/2/3
f 98/3/3 91/3/3 97/3/3
f 99/3/3 93/3/3 92/3/3
f 99/2/3 92/2/3 98/2/3
f 100/2/3 94/2/3 93/2/3
f 100/3/3 93/3/3 99/3/3
f 101/3/3 88/3/3 94/3/3
f 101/2/3 94/2/3 100/2/3
f 102/3/3 88/3/3 101/3/3
f 103/1/3 96/1/3 95/1/3
f 104/3/3 82/3/3 96/3/3
f 104/1/3 96/1/3 103/1/3
f 105/3/3 100/3/3 99/3/3
f 105/3/3 99/3/3 98/3/3
f 105/3/3 101/3/3 100/3/3
f 106/3/3 101/3/3 105/3/3
f 107/3/3 97/3/3 83/3/3
f 107/2/3 98/2/3 97/2/3
f 108/3/3 105/3/3 98/3/3
f 108/2/3 98/2/3 107/2/3
f 109/2/3 106/2/3 105/2/3
f 109/3/3 105/3/3 108/3/3
f 110/3/3 101/3/3 106/3/3
f 110/2/3 106/2/3 109/2/3
f 111/2/3 83/2/3 82/2/3
f 111/3/3 82/3/3 104/3/3
f 112/3/3 108/3/3 107/3/3
f 112/2/3 83/2/3 111/2/3
f 112/3/3 107/3/3 83/3/3
f 113/3/3 108/3/3 112/3/3
f 114/2/3 109/2/3 108/2/3
f 114/3/3 108/3/3 113/3/3
f 115/3/3 110/3/3 109/3/3
f 115/2/3 109/2/3 114/2/3
f 116/3/3 101/3/3 110/3/3
f 116/3/3 110/3/3 115/3/3
f 117/2/3 102/2/3 101/2/3
f 117/3/3 101/3/3 116/3/3
f 118/3/3 88/3/3 102/3/3
f 118/2/3 102/2/3 117/2/3
f 119/3/3 111/3/3 104/3/3
f 119/3/3 112/3/3 111/3/3
f 120/3/3 112/3/3 119/3/3
f 121/2/3 113/2/3 112/2/3
f 121/3/3 112/3/3 120/3/3
f 122/3/3 115/3/3 114/3/3
f 122/2/3 113/2/3 121/2/3
f 122/3/3 114/3/3 113/3/3
f 122/3/3 116/3/3 115/3/3
f 123/2/3 117/2/3 116/2/3
f 123/3/3 116/3/3 122/3/3
f 124/3/3 118/3/3 117/3/3
f 124/2/3 117/2/3 123/2/3
f 125/3/3 88/3/3 118/3/3
f 125/3/3 118/3/3 124/3/3
f 126/2/3 89/2/3 88/2/3
f 126/3/3 88/3/3 125/3/3
f 127/3/3 90/3/3 89/3/3
f 127/2/3 89/2/3 126/2/3
f 128/3/3 90/3/3 127/3/3
f 129/3/3 121/3/3 120/3/3
f 129/3/3 122/3/3 121/3/3
f 130/3/3 122/3/3 129/3/3
f 131/2/3 123/2/3 122/2/3
f 131/3/3 122/3/3 130/3/3
f 132/3/3 125/3/3 124/3/3
f 132/2/3 123/2/3 131/2/3
f 132/3/3 124/3/3 123/3/3
f 133/2/3 126/2/3 125/2/3
f 133/3/3 125/3/3 132/3/3
f 134/3/3 127/3/3 126/3/3
f 134/2/3 126/2/3 133/2/3
f 135/3/3 127/3/3 134/3/3
f 136/3/3 133/3/3 132/3/3
f 136/3/3 132/3/3 131/3/3
f 136/3/3 134/3/3 133/3/3
f 136/3/3 131/3/3 130/3/3
f 137/3/3 134/3/3 136/3/3
f 138/3/3 134/3/3 137/3/3
f 139/3/3 134/3/3 138/3/3
f 140/3/3 138/3/3 137/3/3
f 141/3/3 138/3/3 140/3/3
f 142/3/4 143/3/4 145/3/4
f 145/3/4 143/3/4 146/3/4
f 146/3/4 143/3/4 147/3/4
f 144/3/4 145/3/4 149/3/4
f 145/3/4 146/3/4 149/3/4
f 146/2/4 147/2/4 150/2/4
f 149/3/4 146/3/4 150/3/4
f 147/3/4 148/3/4 151/3/4
f 150/2/4 147/2/4 151/2/4
f 151/3/4 148/3/4 152/3/4
f 152/3/4 148/3/4 153/3/4
f 144/3/4 149/3/4 156/3/4
f 156/3/4 149/3/4 157/3/4
f 149/2/4 150/2/4 158/2/4
f 157/3/4 149/3/4 158/3/4
f 150/3/4 151/3/4 159/3/4
f 158/2/4 150/2/4 159/2/4
f 151/2/4 152/2/4 160/2/4
f 159/3/4 151/3/4 160/3/4
f 153/3/4 154/3/4 161/3/4
f 160/2/4 152/2/4 161/2/4
f 152/3/4 153/3/4 161/3/4
f 161/3/4 154/3/4 162/3/4
f 156/3/4 157/3/4 163/3/4
f 155/3/4 156/3/4 163/3/4
f 157/2/4 158/2/4 164/2/4
f 163/3/4 157/3/4 164/3/4
f 159/3/4 160/3/4 165/3/4
f 164/2/4 158/2/4 165/2/4
f 158/3/4 159/3/4 165/3/4
f 160/3/4 161/3/4 165/3/4
f 165/3/4 161/3/4 166/3/4
f 166/3/4 161/3/4 167/3/4
f 161/2/4 162/2/4 168/2/4
f 167/3/4 161/3/4 168/3/4
f 162/3/4 154/3/4 169/3/4
f 168/2/4 162/2/4 169/2/4
f 169/3/4 154/3/4 170/3/4
f 164/3/4 165/3/4 172/3/4
f 165/3/4 166/3/4 172/3/4
f 166/2/4 167/2/4 173/2/4
f 172/3/4 166/3/4 173/3/4
f 167/3/4 168/3/4 174/3/4
f 173/2/4 167/2/4 174/2/4
f 168/3/4 169/3/4 174/3/4
f 174/3/4 169/3/4 175/3/4
f 155/3/4 163/3/4 177/3/4
f 164/3/4 172/3/4 178/3/4
f 172/2/4 173/2/4 179/2/4
f 178/3/4 172/3/4 179/3/4
f 173/3/4 174/3/4 180/3/4
f 179/2/4 173/2/4 180/2/4
f 174/2/4 175/2/4 181/2/4
f 180/3/4 174/3/4 181/3/4
f 175/3/4 169/3/4 182/3/4
f 181/2/4 175/2/4 182/2/4
f 182/3/4 169/3/4 183/3/4
f 176/1/4 177/1/4 184/1/4
f 177/3/4 163/3/4 185/3/4
f 184/1/4 177/1/4 185/1/4
f 180/3/4 181/3/4 186/3/4
f 179/3/4 180/3/4 186/3/4
f 181/3/4 182/3/4 186/3/4
f 186/3/4 182/3/4 187/3/4
f 164/3/4 178/3/4 188/3/4
f 178/2/4 179/2/4 188/2/4
f 179/3/4 186/3/4 189/3/4
f 188/2/4 179/2/4 189/2/4
f 186/2/4 187/2/4 190/2/4
f 189/3/4 186/3/4 190/3/4
f 187/3/4 182/3/4 191/3/4
f 190/2/4 187/2/4 191/2/4
f 163/2/4 164/2/4 192/2/4
f 185/3/4 163/3/4 192/3/4
f 188/3/4 189/3/4 193/3/4
f 192/2/4 164/2/4 193/2/4
f 164/3/4 188/3/4 193/3/4
f 193/3/4 189/3/4 194/3/4
f 189/2/4 190/2/4 195/2/4
f 194/3/4 189/3/4 195/3/4
f 190/3/4 191/3/4 196/3/4
f 195/2/4 190/2/4 196/2/4
f 191/3/4 182/3/4 197/3/4
f 196/3/4 191/3/4 197/3/4
f 182/2/4 183/2/4 198/2/4
f 197/3/4 182/3/4 198/3/4
f 183/3/4 169/3/4 199/3/4
f 198/2/4 183/2/4 199/2/4
f 185/3/4 192/3/4 200/3/4
f 192/3/4 193/3/4 200/3/4
f 200/3/4 193/3/4 201/3/4
f 193/2/4 194/2/4 202/2/4
f 201/3/4 193/3/4 202/3/4
f 195/3/4 196/3/4 203/3/4
f 202/2/4 194/2/4 203/2/4
f 194/3/4 195/3/4 203/3/4
f 196/3/4 197/3/4 203/3/4
f 197/2/4 198/2/4 204/2/4
f 203/3/4 197/3/4 204/3/4
f 198/3/4 199/3/4 205/3/4
f 204/2/4 198/2/4 205/2/4
f 199/3/4 169/3/4 206/3/4
f 205/3/4 199/3/4 206/3/4
f 169/2/4 170/2/4 207/2/4
f 206/3/4 169/3/4 207/3/4
f 170/3/4 171/3/4 208/3/4
f 207/2/4 170/2/4 208/2/4
f 208/3/4 171/3/4 209/3/4
f 201/3/4 202/3/4 210/3/4
f 202/3/4 203/3/4 210/3/4
f 210/3/4 203/3/4 211/3/4
f 203/2/4 204/2/4 212/2/4
f 211/3/4 203/3/4 212/3/4
f 205/3/4 206/3/4 213/3/4
f 212/2/4 204/2/4 213/2/4
f 204/3/4 205/3/4 213/3/4
f 206/2/4 207/2/4 214/2/4
f 213/3/4 206/3/4 214/3/4
f 207/3/4 208/3/4 215/3/4
f 214/2/4 207/2/4 215/2/4
f 215/3/4 208/3/4 216/3/4
f 213/3/4 214/3/4 217/3/4
f 212/3/4 213/3/4 217/3/4
f 214/3/4 215/3/4 217/3/4
f 211/3/4 212/3/4 217/3/4
f 217/3/4 215/3/4 218/3/4
f 218/3/4 215/3/4 219/3/4
f 219/3/4 215/3/4 220/3/4
f 218/3/4 219/3/4 221/3/4
f 221/3/4 219/3/4 222/3/4
f 225/1/5 224/1/5 223/1/5
f 226/1/5 224/1/5 225/1/5
f 231/3/5 228/3/5 227/3/5
f 232/3/5 228/3/5 231/3/5
f 233/3/5 230/3/5 229/3/5
f 234/3/5 230/3/5 233/3/5
f 239/3/5 236/3/5 235/3/5
f 240/3/5 236/3/5 239/3/5
f 241/3/5 238/3/5 237/3/5
f 242/3/5 238/3/5 241/3/5
f 245/3/5 244/3/5 243/3/5
f 246/3/5 244/3/5 245/3/5
f 251/3/5 248/3/5 247/3/5
f 252/3/5 248/3/5 251/3/5
f 253/3/5 250/3/5 249/3/5
f 254/3/5 250/3/5 253/3/5
f 255/3/6 256/3/6 259/3/6
f 259/3/6 256/3/6 260/3/6
f 257/3/6 258/3/6 261/3/6
f 261/3/6 258/3/6 262/3/6
f 263/3/6 264/3/6 267/3/6
f 267/3/6 264/3/6 268/3/6
f 265/3/6 266/3/6 269/3/6
f 269/3/6 266/3/6 270/3/6
f 271/3/6 272/3/6 275/3/6
f 275/3/6 272/3/6 276/3/6
f 273/3/6 274/3/6 277/3/6
f 277/3/6 274/3/6 278/3/6
f 279/3/6 280/3/6 281/3/6
f 281/3/6 280/3/6 282/3/6
